<svg xmlns="http://www.w3.org/2000/svg" viewBox="16 14 150 96" width="300" height="192">
  <ellipse cx="60" cy="110" rx="40" ry="6" fill="#5FE0DF" fill-opacity="0.18"></ellipse>

  <polygon points="24,34 48,34 36,52" fill="#7CE9E6"></polygon>
  <polygon points="48,34 36,52 60,52" fill="#3FB4E6"></polygon>
  <polygon points="48,34 72,34 60,52" fill="#A6F0EC"></polygon>
  <polygon points="72,34 60,52 84,52" fill="#3FB4E6"></polygon>
  <polygon points="72,34 96,34 84,52" fill="#2E8AE0"></polygon>
  <polygon points="24,34 36,52 60,98" fill="#2E8AE0"></polygon>
  <polygon points="36,52 60,52 60,98" fill="#3FB4E6"></polygon>
  <polygon points="60,52 84,52 60,98" fill="#1C6FD6"></polygon>
  <polygon points="84,52 96,34 60,98" fill="#155FB0"></polygon>
  <polyline points="24,34 96,34" fill="none" stroke="#ffffff" stroke-opacity="0.7" stroke-width="1.8"></polyline>

  <path d="M112 28 q1.6 5.4 6.8 6.8 q-5.2 1.5 -6.8 6.8 q-1.5 -5.2 -6.8 -6.8 q5.2 -1.6 6.8 -6.8 Z" fill="#5FE0DF"></path>
  <path d="M133 50 q1.1 3.6 4.6 4.6 q-3.5 1 -4.6 4.6 q-1 -3.5 -4.6 -4.6 q3.5 -1.1 4.6 -4.6 Z" fill="#7CE9E6"></path>
  <path d="M150 70 q.7 2.6 3.2 3.2 q-2.5 .6 -3.2 3.2 q-.6 -2.5 -3.2 -3.2 q2.5 -.7 3.2 -3.2 Z" fill="#ffffff"></path>
</svg>