<svg xmlns="http://www.w3.org/2000/svg" viewBox="0 0 560 300" width="560" height="300">
  <defs><radialGradient id="bg" cx="50%" cy="0%" r="120%">
    <stop offset="0" stop-color="#133A66"></stop><stop offset="0.55" stop-color="#0B2E59"></stop><stop offset="1" stop-color="#07203F"></stop>
  </radialGradient></defs>
  <rect x="0" y="0" width="560" height="300" rx="6" fill="url(#bg)"></rect>
  <ellipse cx="280" cy="130" rx="40" ry="6" fill="#5FE0DF" fill-opacity="0.18"></ellipse>
  <g transform="translate(220,18)">

  <polygon points="24,34 48,34 36,52" fill="#7CE9E6"></polygon>
  <polygon points="48,34 36,52 60,52" fill="#3FB4E6"></polygon>
  <polygon points="48,34 72,34 60,52" fill="#A6F0EC"></polygon>
  <polygon points="72,34 60,52 84,52" fill="#3FB4E6"></polygon>
  <polygon points="72,34 96,34 84,52" fill="#2E8AE0"></polygon>
  <polygon points="24,34 36,52 60,98" fill="#2E8AE0"></polygon>
  <polygon points="36,52 60,52 60,98" fill="#3FB4E6"></polygon>
  <polygon points="60,52 84,52 60,98" fill="#1C6FD6"></polygon>
  <polygon points="84,52 96,34 60,98" fill="#155FB0"></polygon>
  <polyline points="24,34 96,34" fill="none" stroke="#ffffff" stroke-opacity="0.7" stroke-width="1.8"></polyline>

  <path d="M112 28 q1.6 5.4 6.8 6.8 q-5.2 1.5 -6.8 6.8 q-1.5 -5.2 -6.8 -6.8 q5.2 -1.6 6.8 -6.8 Z" fill="#5FE0DF"></path>
  <path d="M133 50 q1.1 3.6 4.6 4.6 q-3.5 1 -4.6 4.6 q-1 -3.5 -4.6 -4.6 q3.5 -1.1 4.6 -4.6 Z" fill="#7CE9E6"></path>
  <path d="M150 70 q.7 2.6 3.2 3.2 q-2.5 .6 -3.2 3.2 q-.6 -2.5 -3.2 -3.2 q2.5 -.7 3.2 -3.2 Z" fill="#ffffff"></path>
  </g>
  <path transform="translate(96.62200000000001,208)" fill="#ffffff" d="M21.79 0.99L21.79 0.99Q16.64 0.99 12.95-0.83Q9.26-2.65 6.94-5.56Q4.63-8.48 3.54-11.91Q2.44-15.34 2.44-18.51L2.44-18.51L2.44-19.66Q2.44-23.19 3.56-26.62Q4.68-30.06 7.02-32.86Q9.36-35.67 12.97-37.36Q16.59-39.05 21.53-39.05L21.53-39.05Q26.68-39.05 30.50-37.21Q34.32-35.36 36.61-32.01Q38.90-28.65 39.36-24.18L39.36-24.18L31.93-24.18Q31.51-26.78 30.08-28.57Q28.65-30.37 26.47-31.28Q24.28-32.19 21.53-32.19L21.53-32.19Q18.72-32.19 16.54-31.23Q14.35-30.26 12.90-28.50Q11.44-26.73 10.69-24.34Q9.93-21.94 9.93-19.03L9.93-19.03Q9.93-16.22 10.69-13.83Q11.44-11.44 12.95-9.65Q14.46-7.85 16.67-6.86Q18.88-5.88 21.79-5.88L21.79-5.88Q26.05-5.88 28.99-7.98Q31.93-10.09 32.55-13.88L32.55-13.88L39.99-13.88Q39.47-9.83 37.23-6.45Q35.00-3.07 31.10-1.04Q27.20 0.99 21.79 0.99Z M52.88 0L45.66 0L45.66-28.24L51.38-28.24L51.38-19.08Q51.84-23.14 53.82-25.48L53.82-25.48Q56.42-28.60 61.46-28.60L61.46-28.60L62.50-28.60L62.50-22.31L60.53-22.31Q56.89-22.31 54.89-20.36Q52.88-18.41 52.88-14.72L52.88-14.72L52.88 0Z M71.14 11.13L66.51 11.13L66.51 4.94L71.81 4.94Q73.32 4.94 74.33 4.55Q75.35 4.16 76.02 3.30Q76.70 2.44 77.06 0.94L77.06 0.94L77.48-0.62L72.85-0.62L63.70-28.24L70.98-28.24L77.84-6.34L78.94-6.34L84.66-28.24L91.57-28.24L83.20 2.50Q82.37 5.67 80.86 7.57Q79.35 9.46 76.99 10.30Q74.62 11.13 71.14 11.13L71.14 11.13Z M106.81 0.88L106.81 0.88Q100.98 0.88 97.68-1.59Q94.38-4.06 94.22-8.42L94.22-8.42L100.72-8.42Q100.88-6.97 102.34-5.77Q103.79-4.58 106.91-4.58L106.91-4.58Q109.51-4.58 111.05-5.51Q112.58-6.45 112.58-8.06L112.58-8.06Q112.58-9.46 111.41-10.30Q110.24-11.13 107.43-11.39L107.43-11.39L104.94-11.65Q100.20-12.17 97.66-14.35Q95.11-16.54 95.11-20.18L95.11-20.18Q95.11-23.09 96.56-25.06Q98.02-27.04 100.59-28.05Q103.17-29.07 106.50-29.07L106.50-29.07Q111.70-29.07 114.92-26.78Q118.14-24.49 118.30-20.07L118.30-20.07L111.80-20.07Q111.70-21.53 110.34-22.57Q108.99-23.61 106.44-23.61L106.44-23.61Q104.16-23.61 102.91-22.72Q101.66-21.84 101.66-20.44L101.66-20.44Q101.66-19.08 102.67-18.36Q103.69-17.63 105.98-17.37L105.98-17.37L108.47-17.11Q113.46-16.59 116.30-14.35Q119.13-12.12 119.13-8.32L119.13-8.32Q119.13-5.51 117.60-3.46Q116.06-1.40 113.31-0.26Q110.55 0.88 106.81 0.88Z M141.44 0.36L137.38 0.36Q133.48 0.36 130.96-0.65Q128.44-1.66 127.19-4.08Q125.94-6.50 125.94-10.61L125.94-10.61L125.94-22.93L121.47-22.93L121.47-28.24L126.00-28.24L126.00-36.19L132.76-36.19L132.76-28.24L141.44-28.24L141.44-22.93L132.70-22.93L132.70-10.14Q132.70-8.06 133.82-6.94Q134.94-5.82 137.02-5.82L137.02-5.82L141.44-5.82L141.44 0.36Z M170.35 0L164.63 0L164.63-5.41Q164.27-4.32 163.80-3.43L163.80-3.43Q162.60-1.40 160.55-0.34Q158.50 0.73 155.53 0.73L155.53 0.73Q152.46 0.73 150.15-0.36Q147.84-1.46 146.56-3.48Q145.29-5.51 145.29-8.37L145.29-8.37Q145.29-11.49 146.82-13.47Q148.36-15.44 151.14-16.43Q153.92-17.42 157.66-17.42L157.66-17.42L163.44-17.42L163.44-17.68Q163.44-20.12 162.24-21.32Q161.04-22.52 158.55-22.52L158.55-22.52Q157.25-22.52 155.43-22.46Q153.61-22.41 151.76-22.33Q149.92-22.26 148.46-22.15L148.46-22.15L148.46-28.29Q149.66-28.39 151.16-28.50Q152.67-28.60 154.26-28.63Q155.84-28.65 157.25-28.65L157.25-28.65Q161.62-28.65 164.50-27.51Q167.39-26.36 168.87-23.92Q170.35-21.48 170.35-17.52L170.35-17.52L170.35 0ZM163.44-10.45L163.44-13.10L157.56-13.10Q155.06-13.10 153.74-11.88Q152.41-10.66 152.41-8.74Q152.41-6.81 153.74-5.62Q155.06-4.42 157.56-4.42L157.56-4.42Q159.07-4.42 160.34-4.97Q161.62-5.51 162.47-6.84Q163.33-8.16 163.44-10.45L163.44-10.45Z M185.69 0L178.46 0L178.46-32.55L174.93-32.55L174.93-37.96L185.69-37.96L185.69 0Z  M220.64 0L213.25 0L213.25-31.46L202.28-31.46L202.28-37.96L231.61-37.96L231.61-31.46L220.64-31.46L220.64 0Z M250.48 0.99L250.48 0.99Q246.74 0.99 243.88-0.21Q241.02-1.40 239.04-3.46Q237.07-5.51 236.05-8.11Q235.04-10.71 235.04-13.52L235.04-13.52L235.04-14.61Q235.04-17.52 236.11-20.15Q237.17-22.78 239.17-24.83Q241.18-26.88 244.04-28.05Q246.90-29.22 250.48-29.22L250.48-29.22Q254.07-29.22 256.93-28.05Q259.79-26.88 261.79-24.83Q263.80-22.78 264.84-20.15Q265.88-17.52 265.88-14.61L265.88-14.61L265.88-13.52Q265.88-10.71 264.86-8.11Q263.85-5.51 261.87-3.46Q259.90-1.40 257.04-0.21Q254.18 0.99 250.48 0.99ZM250.48-5.20L250.48-5.20Q253.14-5.20 254.96-6.37Q256.78-7.54 257.71-9.54Q258.65-11.54 258.65-14.09L258.65-14.09Q258.65-16.69 257.69-18.69Q256.72-20.70 254.88-21.87Q253.03-23.04 250.48-23.04L250.48-23.04Q247.94-23.04 246.09-21.87Q244.24-20.70 243.26-18.69Q242.27-16.69 242.27-14.09L242.27-14.09Q242.27-11.54 243.23-9.54Q244.19-7.54 246.01-6.37Q247.83-5.20 250.48-5.20Z M282.15 0.88L281.84 0.88Q276.95 0.88 274.27-2.34Q271.60-5.56 271.60-11.91L271.60-11.91L271.60-28.29L278.82-28.29L278.82-11.28Q278.82-8.68 280.28-7.15Q281.74-5.62 284.23-5.62Q286.73-5.62 288.31-7.23Q289.90-8.84 289.90-11.60L289.90-11.60L289.90-28.29L297.13-28.29L297.13 0L291.41 0L291.41-6.55Q291.20-5.67 290.89-4.89L290.89-4.89Q289.80-2.03 287.61-0.57Q285.43 0.88 282.15 0.88L282.15 0.88Z M317.98 0.99L317.98 0.99Q314.29 0.99 311.61-0.26Q308.93-1.51 307.14-3.59Q305.34-5.67 304.46-8.27Q303.58-10.87 303.58-13.57L303.58-13.57L303.58-14.56Q303.58-17.42 304.49-20.05Q305.40-22.67 307.22-24.73Q309.04-26.78 311.71-28.00Q314.39-29.22 317.93-29.22L317.93-29.22Q321.62-29.22 324.53-27.79Q327.44-26.36 329.19-23.82Q330.93-21.27 331.14-17.89L331.14-17.89L324.12-17.89Q323.86-20.07 322.27-21.53Q320.68-22.98 317.93-22.98L317.93-22.98Q315.54-22.98 313.95-21.84Q312.36-20.70 311.58-18.69Q310.80-16.69 310.80-14.09L310.80-14.09Q310.80-11.60 311.56-9.57Q312.31-7.54 313.90-6.40Q315.48-5.25 317.98-5.25L317.98-5.25Q319.85-5.25 321.20-5.93Q322.56-6.60 323.36-7.80Q324.17-9.00 324.38-10.50L324.38-10.50L331.40-10.50Q331.19-7.07 329.39-4.50Q327.60-1.92 324.66-0.47Q321.72 0.99 317.98 0.99Z M344.40 0L337.17 0L337.17-37.96L344.40-37.96L344.40-23.45Q345.49-26.10 347.52-27.56L347.52-27.56Q349.65-29.12 352.98-29.12L352.98-29.12L353.29-29.12Q358.12-29.12 360.62-25.79Q363.12-22.46 363.12-16.12L363.12-16.12L363.12 0L355.89 0L355.89-16.80Q355.89-19.50 354.35-21.06Q352.82-22.62 350.32-22.62L350.32-22.62Q347.67-22.62 346.03-20.88Q344.40-19.14 344.40-16.33L344.40-16.33L344.40 0Z"></path>
  <rect x="150" y="231" width="34" height="2" rx="1" fill="#5FE0DF"></rect>
  <rect x="376" y="231" width="34" height="2" rx="1" fill="#5FE0DF"></rect>
  <path transform="translate(189.5635,240)" fill="#5FE0DF" d="M8.80 0.40L8.80 0.40Q6.72 0.40 5.23-0.34Q3.74-1.07 2.80-2.25Q1.87-3.42 1.43-4.81Q0.99-6.20 0.99-7.48L0.99-7.48L0.99-7.94Q0.99-9.37 1.44-10.75Q1.89-12.14 2.83-13.27Q3.78-14.41 5.24-15.09Q6.70-15.77 8.69-15.77L8.69-15.77Q10.77-15.77 12.32-15.03Q13.86-14.28 14.78-12.93Q15.71-11.57 15.90-9.77L15.90-9.77L12.89-9.77Q12.73-10.82 12.15-11.54Q11.57-12.26 10.69-12.63Q9.81-13.00 8.69-13.00L8.69-13.00Q7.56-13.00 6.68-12.61Q5.80-12.22 5.21-11.51Q4.62-10.79 4.32-9.83Q4.01-8.86 4.01-7.69L4.01-7.69Q4.01-6.55 4.32-5.59Q4.62-4.62 5.23-3.90Q5.84-3.17 6.73-2.77Q7.62-2.37 8.80-2.37L8.80-2.37Q10.52-2.37 11.71-3.22Q12.89-4.07 13.15-5.61L13.15-5.61L16.15-5.61Q15.94-3.97 15.04-2.60Q14.13-1.24 12.56-0.42Q10.98 0.40 8.80 0.40Z M36.85 0L27.67 0L27.67-15.33L30.65-15.33L30.65-2.63L36.85-2.63L36.85 0Z M57.73 0L48.28 0L48.28-15.33L57.56-15.33L57.56-12.81L51.20-12.81L51.20-9.05L57.19-9.05L57.19-6.53L51.20-6.53L51.20-2.52L57.73-2.52L57.73 0Z M71.27 0L68.29 0L73.51-15.33L78.39-15.33L83.76 0L80.70 0L79.29-4.07L72.61-4.07L71.27 0ZM73.45-6.59L78.43-6.59L76.31-12.83L75.53-12.83L73.45-6.59Z M97.80 0L95.03 0L95.03-15.33L99.92-15.33L106.37-2.48L106.64-2.48L106.64-15.33L109.46-15.33L109.46 0L104.54 0L98.10-12.85L97.80-12.85L97.80 0Z M125.26 0L122.28 0L122.28-15.33L125.26-15.33L125.26 0Z M140.86 0L138.08 0L138.08-15.33L142.98-15.33L149.42-2.48L149.70-2.48L149.70-15.33L152.51-15.33L152.51 0L147.60 0L141.15-12.85L140.86-12.85L140.86 0Z M172.43 0.40L172.43 0.40Q170.46 0.40 168.96-0.26Q167.45-0.92 166.44-2.05Q165.42-3.17 164.90-4.59Q164.39-6.01 164.39-7.54L164.39-7.54L164.39-8.00Q164.39-9.45 164.89-10.84Q165.40-12.22 166.37-13.34Q167.35-14.45 168.79-15.11Q170.23-15.77 172.09-15.77L172.09-15.77Q174.11-15.77 175.66-15.03Q177.22-14.28 178.16-12.95Q179.11-11.61 179.28-9.85L179.28-9.85L176.27-9.85Q176.13-10.84 175.54-11.54Q174.95-12.24 174.06-12.62Q173.17-13.00 172.09-13.00Q171.02-13.00 170.15-12.62Q169.28-12.24 168.67-11.55Q168.06-10.86 167.74-9.89Q167.41-8.93 167.41-7.75L167.41-7.75Q167.41-6.47 167.77-5.46Q168.13-4.45 168.78-3.75Q169.43-3.05 170.35-2.68Q171.28-2.31 172.43-2.31L172.43-2.31Q173.96-2.31 175.12-2.96L175.12-2.96Q175.81-3.34 176.27-3.86L176.27-3.86L176.27-5.57L171.95-5.57L171.95-7.79L180.31-7.79L180.31-5.57L179.02-5.57L179.02-2.75Q178.04-1.26 176.34-0.43Q174.64 0.40 172.43 0.40Z"></path>
  <path transform="translate(165.1015,270)" fill="#7C9DB8" d="M4.40 0.20L4.40 0.20Q3.36 0.20 2.61-0.17Q1.87-0.54 1.40-1.12Q0.93-1.71 0.71-2.40Q0.49-3.10 0.49-3.74L0.49-3.74L0.49-3.97Q0.49-4.68 0.72-5.38Q0.95-6.07 1.42-6.64Q1.89-7.20 2.62-7.54Q3.35-7.89 4.35-7.89L4.35-7.89Q5.39-7.89 6.16-7.51Q6.93-7.14 7.39-6.46Q7.85-5.79 7.95-4.88L7.95-4.88L6.45-4.88Q6.36-5.41 6.07-5.77Q5.79-6.13 5.34-6.32Q4.90-6.50 4.35-6.50L4.35-6.50Q3.78-6.50 3.34-6.31Q2.90-6.11 2.60-5.75Q2.31-5.40 2.16-4.91Q2.01-4.43 2.01-3.84L2.01-3.84Q2.01-3.28 2.16-2.79Q2.31-2.31 2.61-1.95Q2.92-1.59 3.37-1.39Q3.81-1.19 4.40-1.19L4.40-1.19Q5.26-1.19 5.85-1.61Q6.45-2.04 6.57-2.80L6.57-2.80L8.07-2.80Q7.97-1.98 7.52-1.30Q7.07-0.62 6.28-0.21Q5.49 0.20 4.40 0.20Z M15.94 0.20L15.94 0.20Q14.90 0.20 14.14-0.17Q13.37-0.54 12.88-1.13Q12.38-1.72 12.13-2.41Q11.88-3.10 11.88-3.74L11.88-3.74L11.88-3.97Q11.88-4.67 12.13-5.37Q12.39-6.07 12.90-6.64Q13.41-7.20 14.16-7.54Q14.92-7.89 15.94-7.89L15.94-7.89Q16.94-7.89 17.70-7.54Q18.46-7.20 18.97-6.64Q19.47-6.07 19.73-5.37Q19.98-4.67 19.98-3.97L19.98-3.97L19.98-3.74Q19.98-3.10 19.73-2.41Q19.48-1.72 18.99-1.13Q18.49-0.54 17.73-0.17Q16.96 0.20 15.94 0.20ZM15.94-1.19L15.94-1.19Q16.52-1.19 16.99-1.40Q17.46-1.61 17.79-1.98Q18.12-2.35 18.29-2.83Q18.47-3.31 18.47-3.84L18.47-3.84Q18.47-4.42 18.29-4.90Q18.12-5.39 17.79-5.74Q17.46-6.10 16.99-6.30Q16.51-6.50 15.94-6.50L15.94-6.50Q15.35-6.50 14.88-6.30Q14.40-6.10 14.07-5.74Q13.74-5.39 13.57-4.90Q13.39-4.42 13.39-3.84L13.39-3.84Q13.39-3.31 13.57-2.83Q13.74-2.35 14.07-1.98Q14.40-1.61 14.88-1.40Q15.35-1.19 15.94-1.19Z M25.78 0L24.42 0L24.42-7.67L26.45-7.67L28.38-3.09L28.56-3.09L30.48-7.67L32.54-7.67L32.54 0L31.06 0L31.06-6.07L29.18-1.56L27.66-1.56L25.78-6.05L25.78 0Z M38.80 0L37.43 0L37.43-7.67L39.47-7.67L41.39-3.09L41.58-3.09L43.49-7.67L45.56-7.67L45.56 0L44.08 0L44.08-6.07L42.20-1.56L40.68-1.56L38.80-6.05L38.80 0Z M55.18 0L50.45 0L50.45-7.67L55.09-7.67L55.09-6.41L51.91-6.41L51.91-4.53L54.90-4.53L54.90-3.27L51.91-3.27L51.91-1.26L55.18-1.26L55.18 0Z M61.20 0L59.71 0L59.71-7.72L62.55-7.72Q63.48-7.72 64.16-7.44Q64.83-7.17 65.20-6.62Q65.57-6.06 65.57-5.22L65.57-5.22L65.57-5.05Q65.57-4.20 65.20-3.65Q64.82-3.11 64.15-2.83L64.15-2.83Q64.12-2.82 64.09-2.81L64.09-2.81L66.13 0L64.39 0L62.59-2.56Q62.58-2.56 62.55-2.56L62.55-2.56L61.20-2.56L61.20 0ZM62.71-6.45L61.20-6.45L61.20-3.77L62.71-3.77Q63.12-3.77 63.42-3.94Q63.72-4.11 63.89-4.41Q64.06-4.71 64.06-5.10L64.06-5.10Q64.06-5.50 63.89-5.81Q63.72-6.11 63.42-6.28Q63.12-6.45 62.71-6.45L62.71-6.45Z M73.72 0.20L73.72 0.20Q72.68 0.20 71.94-0.17Q71.19-0.54 70.73-1.12Q70.26-1.71 70.04-2.40Q69.82-3.10 69.82-3.74L69.82-3.74L69.82-3.97Q69.82-4.68 70.04-5.38Q70.27-6.07 70.74-6.64Q71.21-7.20 71.94-7.54Q72.67-7.89 73.67-7.89L73.67-7.89Q74.71-7.89 75.48-7.51Q76.25-7.14 76.72-6.46Q77.18-5.79 77.27-4.88L77.27-4.88L75.77-4.88Q75.69-5.41 75.40-5.77Q75.11-6.13 74.67-6.32Q74.23-6.50 73.67-6.50L73.67-6.50Q73.10-6.50 72.66-6.31Q72.22-6.11 71.93-5.75Q71.63-5.40 71.48-4.91Q71.33-4.43 71.33-3.84L71.33-3.84Q71.33-3.28 71.48-2.79Q71.63-2.31 71.94-1.95Q72.24-1.59 72.69-1.39Q73.14-1.19 73.72-1.19L73.72-1.19Q74.58-1.19 75.18-1.61Q75.77-2.04 75.90-2.80L75.90-2.80L77.40-2.80Q77.29-1.98 76.84-1.30Q76.39-0.62 75.60-0.21Q74.82 0.20 73.72 0.20Z M83.17 0L81.68 0L81.68-7.67L83.17-7.67L83.17 0Z M88.82 0L87.33 0L89.94-7.67L92.38-7.67L95.06 0L93.53 0L92.83-2.04L89.49-2.04L88.82 0ZM89.91-3.30L92.40-3.30L91.34-6.42L90.95-6.42L89.91-3.30Z M103.79 0L99.20 0L99.20-7.67L100.69-7.67L100.69-1.31L103.79-1.31L103.79 0Z  M119.57 0L117.93 0L117.48-0.49Q117.18-0.25 116.83-0.09L116.83-0.09Q116.17 0.21 115.39 0.21L115.39 0.21Q114.55 0.21 113.93-0.12Q113.30-0.44 112.95-1.00Q112.60-1.55 112.60-2.24L112.60-2.24L112.60-2.38Q112.60-3.14 113.03-3.74L113.03-3.74Q113.40-4.23 113.92-4.55L113.92-4.55Q113.83-4.73 113.78-4.89L113.78-4.89Q113.65-5.25 113.65-5.67L113.65-5.67Q113.65-6.32 113.92-6.79Q114.20-7.26 114.78-7.51Q115.36-7.76 116.29-7.76L116.29-7.76Q116.65-7.76 117.07-7.73Q117.48-7.70 117.80-7.64L117.80-7.64L117.80-6.43Q117.59-6.46 117.27-6.48Q116.96-6.51 116.65-6.53Q116.34-6.54 116.14-6.54L116.14-6.54Q115.48-6.54 115.24-6.30Q115.00-6.06 115.00-5.61L115.00-5.61Q115.00-5.21 115.19-4.86Q115.38-4.50 115.79-4.05L115.79-4.05L117.40-2.33Q117.42-2.39 117.45-2.46L117.45-2.46Q117.72-3.13 117.75-4.16L117.75-4.16L116.69-4.16L116.69-5.24L119.59-5.24L119.59-4.16L119.03-4.16Q119.01-3.18 118.75-2.42L118.75-2.42Q118.56-1.84 118.28-1.39L118.28-1.39L119.57 0ZM114.54-3.68L114.54-3.68Q114.34-3.51 114.19-3.26L114.19-3.26Q113.95-2.87 113.95-2.37L113.95-2.37Q113.95-1.95 114.14-1.64Q114.32-1.33 114.66-1.17Q114.99-1.00 115.46-1.00L115.46-1.00Q116.11-1.00 116.63-1.35L116.63-1.35Q116.64-1.36 116.65-1.38L116.65-1.38L114.93-3.23Q114.71-3.47 114.54-3.68Z  M130.56 0L129.07 0L129.07-7.72L131.91-7.72Q132.84-7.72 133.52-7.44Q134.19-7.17 134.56-6.62Q134.93-6.06 134.93-5.22L134.93-5.22L134.93-5.05Q134.93-4.20 134.56-3.65Q134.18-3.11 133.51-2.83L133.51-2.83Q133.48-2.82 133.45-2.81L133.45-2.81L135.50 0L133.75 0L131.95-2.56Q131.94-2.56 131.91-2.56L131.91-2.56L130.56-2.56L130.56 0ZM132.07-6.45L130.56-6.45L130.56-3.77L132.07-3.77Q132.48-3.77 132.78-3.94Q133.08-4.11 133.25-4.41Q133.42-4.71 133.42-5.10L133.42-5.10Q133.42-5.50 133.25-5.81Q133.08-6.11 132.78-6.28Q132.48-6.45 132.07-6.45L132.07-6.45Z M144.35 0L139.63 0L139.63-7.67L144.27-7.67L144.27-6.41L141.09-6.41L141.09-4.53L144.08-4.53L144.08-3.27L141.09-3.27L141.09-1.26L144.35-1.26L144.35 0Z M151.50 0.20L151.50 0.20Q150.48 0.20 149.78-0.13Q149.09-0.45 148.72-1.02Q148.35-1.60 148.35-2.32L148.35-2.32L149.81-2.32Q149.81-2.02 149.98-1.73Q150.15-1.44 150.52-1.26Q150.89-1.08 151.50-1.08L151.50-1.08Q152.05-1.08 152.42-1.24Q152.78-1.40 152.96-1.65Q153.14-1.91 153.14-2.24L153.14-2.24Q153.14-2.65 152.79-2.89Q152.45-3.14 151.72-3.20L151.72-3.20L151.05-3.26Q149.95-3.35 149.29-3.94Q148.64-4.54 148.64-5.51L148.64-5.51Q148.64-6.25 148.98-6.78Q149.33-7.31 149.95-7.60Q150.58-7.89 151.42-7.89L151.42-7.89Q152.29-7.89 152.92-7.58Q153.55-7.28 153.90-6.73Q154.24-6.17 154.24-5.43L154.24-5.43L152.78-5.43Q152.78-5.74 152.63-6.01Q152.48-6.28 152.18-6.44Q151.88-6.60 151.42-6.60L151.42-6.60Q150.98-6.60 150.68-6.46Q150.39-6.31 150.24-6.06Q150.09-5.81 150.09-5.51L150.09-5.51Q150.09-5.16 150.36-4.89Q150.62-4.62 151.19-4.58L151.19-4.58L151.86-4.52Q152.68-4.45 153.30-4.17Q153.92-3.89 154.26-3.40Q154.60-2.92 154.60-2.24L154.60-2.24Q154.60-1.51 154.22-0.96Q153.84-0.41 153.14-0.11Q152.45 0.20 151.50 0.20Z M160.48 0L158.99 0L158.99-7.67L160.48-7.67L160.48 0Z M168.16 0.04L165.39 0.04L165.39-7.72L168.16-7.72Q169.20-7.72 169.98-7.41Q170.75-7.11 171.27-6.58Q171.78-6.05 172.04-5.37Q172.30-4.69 172.30-3.97L172.30-3.97L172.30-3.74Q172.30-3.05 172.04-2.37Q171.78-1.70 171.27-1.16Q170.75-0.61 169.98-0.28Q169.20 0.04 168.16 0.04L168.16 0.04ZM168.25-6.33L166.88-6.33L166.88-1.34L168.25-1.34Q168.85-1.34 169.32-1.53Q169.79-1.71 170.11-2.05Q170.44-2.38 170.61-2.84Q170.78-3.30 170.78-3.85L170.78-3.85Q170.78-4.43 170.61-4.89Q170.44-5.34 170.11-5.67Q169.79-6.00 169.32-6.16Q168.85-6.33 168.25-6.33L168.25-6.33Z M181.35 0L176.63 0L176.63-7.67L181.27-7.67L181.27-6.41L178.09-6.41L178.09-4.53L181.08-4.53L181.08-3.27L178.09-3.27L178.09-1.26L181.35-1.26L181.35 0Z M187.27 0L185.89 0L185.89-7.67L188.33-7.67L191.56-1.24L191.69-1.24L191.69-7.67L193.10-7.67L193.10 0L190.64 0L187.42-6.43L187.27-6.43L187.27 0Z M200.99 0L199.50 0L199.50-6.35L197.29-6.35L197.29-7.67L203.21-7.67L203.21-6.35L200.99-6.35L200.99 0Z M208.91 0L207.42 0L207.42-7.67L208.91-7.67L208.91 0Z M214.55 0L213.06 0L215.68-7.67L218.11-7.67L220.80 0L219.27 0L218.57-2.04L215.23-2.04L214.55 0ZM215.65-3.30L218.13-3.30L217.07-6.42L216.69-6.42L215.65-3.30Z M229.52 0L224.94 0L224.94-7.67L226.43-7.67L226.43-1.31L229.52-1.31L229.52 0Z"></path>
</svg>