<svg xmlns="http://www.w3.org/2000/svg" viewBox="0 0 120 120" width="240" height="240">
  <defs><radialGradient id="tg" cx="50%" cy="0%" r="120%">
    <stop offset="0" stop-color="#133A66"></stop><stop offset="0.6" stop-color="#0B2E59"></stop><stop offset="1" stop-color="#07203F"></stop>
  </radialGradient></defs>
  <rect x="0" y="0" width="120" height="120" rx="28" fill="url(#tg)"></rect>
  <g transform="translate(60,62) scale(0.82) translate(-60,-66)">

  <polygon points="24,34 48,34 36,52" fill="#7CE9E6"></polygon>
  <polygon points="48,34 36,52 60,52" fill="#3FB4E6"></polygon>
  <polygon points="48,34 72,34 60,52" fill="#A6F0EC"></polygon>
  <polygon points="72,34 60,52 84,52" fill="#3FB4E6"></polygon>
  <polygon points="72,34 96,34 84,52" fill="#2E8AE0"></polygon>
  <polygon points="24,34 36,52 60,98" fill="#2E8AE0"></polygon>
  <polygon points="36,52 60,52 60,98" fill="#3FB4E6"></polygon>
  <polygon points="60,52 84,52 60,98" fill="#1C6FD6"></polygon>
  <polygon points="84,52 96,34 60,98" fill="#155FB0"></polygon>
  <polyline points="24,34 96,34" fill="none" stroke="#ffffff" stroke-opacity="0.7" stroke-width="1.8"></polyline>
  </g>
</svg>