<svg xmlns="http://www.w3.org/2000/svg" viewBox="0 0 430 110" width="430" height="110">
  <g transform="translate(8,8) scale(0.74)">

  <polygon points="24,34 48,34 36,52" fill="#5FE0DF"></polygon>
  <polygon points="48,34 36,52 60,52" fill="#2E9BE0"></polygon>
  <polygon points="48,34 72,34 60,52" fill="#7CE9E6"></polygon>
  <polygon points="72,34 60,52 84,52" fill="#2E9BE0"></polygon>
  <polygon points="72,34 96,34 84,52" fill="#1C6FD6"></polygon>
  <polygon points="24,34 36,52 60,98" fill="#1C6FD6"></polygon>
  <polygon points="36,52 60,52 60,98" fill="#2E9BE0"></polygon>
  <polygon points="60,52 84,52 60,98" fill="#155FB0"></polygon>
  <polygon points="84,52 96,34 60,98" fill="#0E4FA1"></polygon>
  <polyline points="24,34 96,34" fill="none" stroke="#ffffff" stroke-opacity="0.55" stroke-width="1.8"></polyline>
    <path d="M112 30 q1.1 3.6 4.6 4.6 q-3.5 1 -4.6 4.6 q-1 -3.5 -4.6 -4.6 q3.5 -1.1 4.6 -4.6 Z" fill="#15B5C4"></path>
  </g>
  <path transform="translate(108,56)" fill="#0B2E59" d="M13.41 0.61L13.41 0.61Q10.24 0.61 7.97-0.51Q5.70-1.63 4.27-3.42Q2.85-5.22 2.18-7.33Q1.50-9.44 1.50-11.39L1.50-11.39L1.50-12.10Q1.50-14.27 2.19-16.38Q2.88-18.50 4.32-20.22Q5.76-21.95 7.98-22.99Q10.21-24.03 13.25-24.03L13.25-24.03Q16.42-24.03 18.77-22.90Q21.12-21.76 22.53-19.70Q23.94-17.63 24.22-14.88L24.22-14.88L19.65-14.88Q19.39-16.48 18.51-17.58Q17.63-18.69 16.29-19.25Q14.94-19.81 13.25-19.81L13.25-19.81Q11.52-19.81 10.18-19.22Q8.83-18.62 7.94-17.54Q7.04-16.45 6.58-14.98Q6.11-13.50 6.11-11.71L6.11-11.71Q6.11-9.98 6.58-8.51Q7.04-7.04 7.97-5.94Q8.90-4.83 10.26-4.22Q11.62-3.62 13.41-3.62L13.41-3.62Q16.03-3.62 17.84-4.91Q19.65-6.21 20.03-8.54L20.03-8.54L24.61-8.54Q24.29-6.05 22.91-3.97Q21.54-1.89 19.14-0.64Q16.74 0.61 13.41 0.61Z M32.54 0L28.10 0L28.10-17.38L31.62-17.38L31.62-11.74Q31.90-14.24 33.12-15.68L33.12-15.68Q34.72-17.60 37.82-17.60L37.82-17.60L38.46-17.60L38.46-13.73L37.25-13.73Q35.01-13.73 33.78-12.53Q32.54-11.33 32.54-9.06L32.54-9.06L32.54 0Z M43.78 6.85L40.93 6.85L40.93 3.04L44.19 3.04Q45.12 3.04 45.74 2.80Q46.37 2.56 46.78 2.03Q47.20 1.50 47.42 0.58L47.42 0.58L47.68-0.38L44.83-0.38L39.20-17.38L43.68-17.38L47.90-3.90L48.58-3.90L52.10-17.38L56.35-17.38L51.20 1.54Q50.69 3.49 49.76 4.66Q48.83 5.82 47.38 6.34Q45.92 6.85 43.78 6.85L43.78 6.85Z M65.73 0.54L65.73 0.54Q62.14 0.54 60.11-0.98Q58.08-2.50 57.98-5.18L57.98-5.18L61.98-5.18Q62.08-4.29 62.98-3.55Q63.87-2.82 65.79-2.82L65.79-2.82Q67.39-2.82 68.34-3.39Q69.28-3.97 69.28-4.96L69.28-4.96Q69.28-5.82 68.56-6.34Q67.84-6.85 66.11-7.01L66.11-7.01L64.58-7.17Q61.66-7.49 60.10-8.83Q58.53-10.18 58.53-12.42L58.53-12.42Q58.53-14.21 59.42-15.42Q60.32-16.64 61.90-17.26Q63.49-17.89 65.54-17.89L65.54-17.89Q68.74-17.89 70.72-16.48Q72.70-15.07 72.80-12.35L72.80-12.35L68.80-12.35Q68.74-13.25 67.90-13.89Q67.07-14.53 65.50-14.53L65.50-14.53Q64.10-14.53 63.33-13.98Q62.56-13.44 62.56-12.58L62.56-12.58Q62.56-11.74 63.18-11.30Q63.81-10.85 65.22-10.69L65.22-10.69L66.75-10.53Q69.82-10.21 71.57-8.83Q73.31-7.46 73.31-5.12L73.31-5.12Q73.31-3.39 72.37-2.13Q71.42-0.86 69.73-0.16Q68.03 0.54 65.73 0.54Z M87.04 0.22L84.54 0.22Q82.14 0.22 80.59-0.40Q79.04-1.02 78.27-2.51Q77.50-4 77.50-6.53L77.50-6.53L77.50-14.11L74.75-14.11L74.75-17.38L77.54-17.38L77.54-22.27L81.70-22.27L81.70-17.38L87.04-17.38L87.04-14.11L81.66-14.11L81.66-6.24Q81.66-4.96 82.35-4.27Q83.04-3.58 84.32-3.58L84.32-3.58L87.04-3.58L87.04 0.22Z M104.83 0L101.31 0L101.31-3.33Q101.09-2.66 100.80-2.11L100.80-2.11Q100.06-0.86 98.80-0.21Q97.54 0.45 95.71 0.45L95.71 0.45Q93.82 0.45 92.40-0.22Q90.98-0.90 90.19-2.14Q89.41-3.39 89.41-5.15L89.41-5.15Q89.41-7.07 90.35-8.29Q91.30-9.50 93.01-10.11Q94.72-10.72 97.02-10.72L97.02-10.72L100.58-10.72L100.58-10.88Q100.58-12.38 99.84-13.12Q99.10-13.86 97.57-13.86L97.57-13.86Q96.77-13.86 95.65-13.82Q94.53-13.79 93.39-13.74Q92.26-13.70 91.36-13.63L91.36-13.63L91.36-17.41Q92.10-17.47 93.02-17.54Q93.95-17.60 94.93-17.62Q95.90-17.63 96.77-17.63L96.77-17.63Q99.46-17.63 101.23-16.93Q103.01-16.22 103.92-14.72Q104.83-13.22 104.83-10.78L104.83-10.78L104.83 0ZM100.58-6.43L100.58-8.06L96.96-8.06Q95.42-8.06 94.61-7.31Q93.79-6.56 93.79-5.38Q93.79-4.19 94.61-3.46Q95.42-2.72 96.96-2.72L96.96-2.72Q97.89-2.72 98.67-3.06Q99.46-3.39 99.98-4.21Q100.51-5.02 100.58-6.43L100.58-6.43Z M114.27 0L109.82 0L109.82-20.03L107.65-20.03L107.65-23.36L114.27-23.36L114.27 0Z  M135.78 0L131.23 0L131.23-19.36L124.48-19.36L124.48-23.36L142.53-23.36L142.53-19.36L135.78-19.36L135.78 0Z M154.14 0.61L154.14 0.61Q151.84 0.61 150.08-0.13Q148.32-0.86 147.10-2.13Q145.89-3.39 145.26-4.99Q144.64-6.59 144.64-8.32L144.64-8.32L144.64-8.99Q144.64-10.78 145.30-12.40Q145.95-14.02 147.18-15.28Q148.42-16.54 150.18-17.26Q151.94-17.98 154.14-17.98L154.14-17.98Q156.35-17.98 158.11-17.26Q159.87-16.54 161.10-15.28Q162.34-14.02 162.98-12.40Q163.62-10.78 163.62-8.99L163.62-8.99L163.62-8.32Q163.62-6.59 162.99-4.99Q162.37-3.39 161.15-2.13Q159.94-0.86 158.18-0.13Q156.42 0.61 154.14 0.61ZM154.14-3.20L154.14-3.20Q155.78-3.20 156.90-3.92Q158.02-4.64 158.59-5.87Q159.17-7.10 159.17-8.67L159.17-8.67Q159.17-10.27 158.58-11.50Q157.98-12.74 156.85-13.46Q155.71-14.18 154.14-14.18L154.14-14.18Q152.58-14.18 151.44-13.46Q150.30-12.74 149.70-11.50Q149.09-10.27 149.09-8.67L149.09-8.67Q149.09-7.10 149.68-5.87Q150.27-4.64 151.39-3.92Q152.51-3.20 154.14-3.20Z M173.63 0.54L173.44 0.54Q170.43 0.54 168.78-1.44Q167.14-3.42 167.14-7.33L167.14-7.33L167.14-17.41L171.58-17.41L171.58-6.94Q171.58-5.34 172.48-4.40Q173.38-3.46 174.91-3.46Q176.45-3.46 177.42-4.45Q178.40-5.44 178.40-7.14L178.40-7.14L178.40-17.41L182.85-17.41L182.85 0L179.33 0L179.33-4.03Q179.20-3.49 179.01-3.01L179.01-3.01Q178.34-1.25 176.99-0.35Q175.65 0.54 173.63 0.54L173.63 0.54Z M195.68 0.61L195.68 0.61Q193.41 0.61 191.76-0.16Q190.11-0.93 189.01-2.21Q187.90-3.49 187.36-5.09Q186.82-6.69 186.82-8.35L186.82-8.35L186.82-8.96Q186.82-10.72 187.38-12.34Q187.94-13.95 189.06-15.22Q190.18-16.48 191.82-17.23Q193.47-17.98 195.65-17.98L195.65-17.98Q197.92-17.98 199.71-17.10Q201.50-16.22 202.58-14.66Q203.65-13.09 203.78-11.01L203.78-11.01L199.46-11.01Q199.30-12.35 198.32-13.25Q197.34-14.14 195.65-14.14L195.65-14.14Q194.18-14.14 193.20-13.44Q192.22-12.74 191.74-11.50Q191.26-10.27 191.26-8.67L191.26-8.67Q191.26-7.14 191.73-5.89Q192.19-4.64 193.17-3.94Q194.14-3.23 195.68-3.23L195.68-3.23Q196.83-3.23 197.66-3.65Q198.50-4.06 198.99-4.80Q199.49-5.54 199.62-6.46L199.62-6.46L203.94-6.46Q203.81-4.35 202.70-2.77Q201.60-1.18 199.79-0.29Q197.98 0.61 195.68 0.61Z M211.94 0L207.49 0L207.49-23.36L211.94-23.36L211.94-14.43Q212.61-16.06 213.86-16.96L213.86-16.96Q215.17-17.92 217.22-17.92L217.22-17.92L217.41-17.92Q220.38-17.92 221.92-15.87Q223.46-13.82 223.46-9.92L223.46-9.92L223.46 0L219.01 0L219.01-10.34Q219.01-12 218.06-12.96Q217.12-13.92 215.58-13.92L215.58-13.92Q213.95-13.92 212.94-12.85Q211.94-11.78 211.94-10.05L211.94-10.05L211.94 0Z"></path>
  <path transform="translate(110,82)" fill="#15B5C4" d="M5.03 0.23L5.03 0.23Q3.84 0.23 2.99-0.19Q2.14-0.61 1.60-1.28Q1.07-1.96 0.82-2.75Q0.56-3.54 0.56-4.27L0.56-4.27L0.56-4.54Q0.56-5.35 0.82-6.14Q1.08-6.94 1.62-7.58Q2.16-8.23 2.99-8.62Q3.83-9.01 4.97-9.01L4.97-9.01Q6.16-9.01 7.04-8.59Q7.92-8.16 8.45-7.39Q8.98-6.61 9.08-5.58L9.08-5.58L7.37-5.58Q7.27-6.18 6.94-6.59Q6.61-7.01 6.11-7.22Q5.60-7.43 4.97-7.43L4.97-7.43Q4.32-7.43 3.82-7.21Q3.31-6.98 2.98-6.58Q2.64-6.17 2.47-5.62Q2.29-5.06 2.29-4.39L2.29-4.39Q2.29-3.74 2.47-3.19Q2.64-2.64 2.99-2.23Q3.34-1.81 3.85-1.58Q4.36-1.36 5.03-1.36L5.03-1.36Q6.01-1.36 6.69-1.84Q7.37-2.33 7.51-3.20L7.51-3.20L9.23-3.20Q9.11-2.27 8.59-1.49Q8.08-0.71 7.18-0.24Q6.28 0.23 5.03 0.23Z M22.41 0L17.17 0L17.17-8.76L18.87-8.76L18.87-1.50L22.41-1.50L22.41 0Z M35.70 0L30.30 0L30.30-8.76L35.61-8.76L35.61-7.32L31.97-7.32L31.97-5.17L35.39-5.17L35.39-3.73L31.97-3.73L31.97-1.44L35.70-1.44L35.70 0Z M44.80 0L43.09 0L46.08-8.76L48.86-8.76L51.94 0L50.18 0L49.38-2.33L45.56-2.33L44.80 0ZM46.04-3.77L48.89-3.77L47.68-7.33L47.23-7.33L46.04-3.77Z M61.32 0L59.73 0L59.73-8.76L62.53-8.76L66.21-1.42L66.37-1.42L66.37-8.76L67.98-8.76L67.98 0L65.17 0L61.48-7.34L61.32-7.34L61.32 0Z M78.36 0L76.66 0L76.66-8.76L78.36-8.76L78.36 0Z M88.63 0L87.05 0L87.05-8.76L89.84-8.76L93.53-1.42L93.68-1.42L93.68-8.76L95.29-8.76L95.29 0L92.48 0L88.80-7.34L88.63-7.34L88.63 0Z M108.03 0.23L108.03 0.23Q106.90 0.23 106.05-0.15Q105.19-0.53 104.61-1.17Q104.02-1.81 103.73-2.62Q103.44-3.43 103.44-4.31L103.44-4.31L103.44-4.57Q103.44-5.40 103.72-6.19Q104.01-6.98 104.57-7.62Q105.13-8.26 105.95-8.63Q106.77-9.01 107.84-9.01L107.84-9.01Q108.99-9.01 109.88-8.59Q110.77-8.16 111.31-7.40Q111.85-6.64 111.94-5.63L111.94-5.63L110.23-5.63Q110.14-6.19 109.81-6.59Q109.47-7.00 108.96-7.21Q108.45-7.43 107.84-7.43Q107.23-7.43 106.73-7.21Q106.23-7.00 105.88-6.60Q105.54-6.20 105.35-5.65Q105.16-5.10 105.16-4.43L105.16-4.43Q105.16-3.70 105.37-3.12Q105.57-2.54 105.94-2.14Q106.32-1.74 106.84-1.53Q107.37-1.32 108.03-1.32L108.03-1.32Q108.91-1.32 109.57-1.69L109.57-1.69Q109.96-1.91 110.23-2.21L110.23-2.21L110.23-3.18L107.76-3.18L107.76-4.45L112.53-4.45L112.53-3.18L111.80-3.18L111.80-1.57Q111.24-0.72 110.26-0.25Q109.29 0.23 108.03 0.23Z"></path>
</svg>